<svg version="1.0" xmlns="http://www.w3.org/2000/svg"
 width="300.000000pt" height="319.000000pt" viewBox="0 0 300.000000 319.000000"
 preserveAspectRatio="xMidYMid meet">

<g transform="translate(0.000000,319.000000) scale(0.100000,-0.100000)"
fill="#000000" stroke="none">
<path d="M1565 3123 c-61 -14 -155 -47 -155 -55 0 -19 62 -253 68 -260 4 -4
43 -12 86 -18 147 -21 227 -47 381 -125 l149 -76 128 87 c70 48 128 93 128 99
0 20 -104 134 -165 180 -91 68 -227 132 -330 155 -84 18 -236 25 -290 13z"/>
<path d="M574 2868 c-79 -60 -270 -256 -259 -266 2 -2 31 6 65 19 52 20 66 31
88 68 14 25 52 80 84 123 32 43 56 78 54 78 -2 0 -16 -10 -32 -22z"/>
<path d="M611 2370 c-41 -11 -98 -31 -128 -45 -49 -22 -56 -30 -83 -88 -54
-120 -96 -269 -124 -442 l-14 -89 112 -111 c62 -62 152 -138 203 -173 l93 -63
202 192 c112 105 213 201 226 213 l22 22 -70 294 c-39 162 -73 297 -76 300 -3
3 -69 6 -147 7 -115 2 -156 -1 -216 -17z"/>
<path d="M2915 1992 c4 -115 7 -135 33 -193 16 -35 34 -75 40 -89 10 -23 11
-23 11 15 2 121 -50 395 -74 395 -11 0 -13 -25 -10 -128z"/>
<path d="M2135 1898 c-110 -79 -333 -290 -341 -323 -5 -20 122 -573 135 -588
4 -4 56 -10 117 -13 118 -7 209 3 338 38 l79 21 48 103 c63 132 104 255 123
369 25 142 25 141 -53 226 -38 41 -93 94 -123 116 -54 42 -195 123 -213 123
-5 -1 -55 -33 -110 -72z"/>
<path d="M12 1513 c4 -38 13 -93 20 -123 l12 -55 7 45 c13 78 10 114 -13 158
-13 23 -26 42 -29 42 -3 0 -2 -30 3 -67z"/>
<path d="M721 681 c-56 -53 -102 -100 -101 -105 0 -10 47 -71 120 -155 46 -53
69 -70 140 -103 100 -47 305 -108 360 -108 94 0 308 64 302 91 -2 8 -24 69
-50 136 l-47 122 -45 6 c-204 24 -339 68 -488 158 l-89 53 -102 -95z"/>
<path d="M2595 722 c-33 -12 -49 -29 -98 -105 -32 -49 -56 -91 -55 -93 6 -5
143 123 182 170 40 49 35 53 -29 28z"/>
</g>
</svg>