<svg version="1.0" xmlns="http://www.w3.org/2000/svg"
 width="703.000000pt" height="900.000000pt" viewBox="0 0 703.000000 900.000000"
 preserveAspectRatio="xMidYMid meet">

<g transform="translate(0.000000,900.000000) scale(0.100000,-0.100000)"
fill="#000000" stroke="none">
<path d="M3200 8310 c-319 -14 -543 -61 -748 -156 -112 -51 -347 -213 -424
-291 -126 -129 -293 -400 -378 -612 -63 -156 -102 -391 -101 -607 l0 -114 -29
-15 c-17 -9 -33 -27 -36 -42 -16 -62 37 -394 76 -478 5 -11 24 -60 41 -110 34
-98 104 -244 152 -315 16 -25 87 -103 157 -175 l128 -130 5 -150 c12 -317 80
-507 305 -851 55 -84 128 -189 162 -235 61 -83 62 -84 55 -134 -3 -30 2 -119
14 -215 49 -406 49 -433 17 -715 -21 -176 -61 -370 -115 -550 -23 -77 -62
-210 -87 -295 -76 -259 -76 -257 -217 -555 -101 -213 -272 -515 -308 -544 -13
-11 -20 -24 -16 -33 10 -27 162 -127 264 -174 220 -103 506 -199 663 -224 41
-7 90 -19 109 -27 24 -11 39 -13 50 -6 11 7 25 7 41 0 15 -6 125 -10 270 -10
488 0 781 63 1140 243 100 50 174 97 238 152 18 16 37 26 42 23 5 -3 8 8 7 25
-1 16 -7 30 -14 30 -11 0 -70 88 -115 171 -9 17 -23 38 -31 47 -32 37 -196
333 -240 432 -74 170 -140 334 -141 353 0 10 -6 21 -13 25 -17 11 -65 140
-111 297 -41 143 -52 185 -101 405 -5 25 -15 117 -21 205 -8 131 -7 200 6 380
9 121 20 285 24 365 16 273 26 356 48 392 11 18 41 80 66 137 25 57 75 156
109 220 178 324 327 708 327 839 0 47 9 69 85 210 120 223 179 385 229 632 14
69 29 157 32 195 5 53 16 90 46 152 35 71 40 89 35 130 -3 31 -12 53 -26 64
-15 13 -21 29 -21 61 -1 51 -16 116 -60 258 -63 203 -102 316 -134 390 -18 41
-43 104 -55 140 -25 74 -28 80 -227 317 -19 23 -83 77 -142 120 -59 42 -135
97 -170 123 -95 70 -233 136 -332 160 -30 7 -103 26 -162 42 -132 36 -161 38
-368 28z m160 -76 c0 -31 16 -63 43 -84 18 -15 19 -18 3 -48 -19 -36 -43 -52
-81 -52 -33 0 -60 14 -106 55 -71 64 -136 53 -211 -36 -58 -69 -89 -68 -167 6
-55 52 -60 55 -110 55 -38 0 -75 -10 -134 -35 -78 -34 -159 -46 -171 -27 -9
14 154 80 292 118 174 48 330 71 500 73 l142 1 0 -26z m166 1 c77 -17 285 -90
364 -130 129 -65 322 -197 408 -279 58 -55 119 -136 103 -136 -34 0 -43 -91
-15 -152 22 -49 12 -96 -27 -134 -46 -44 -59 -76 -59 -149 0 -81 -22 -128 -96
-206 -29 -31 -56 -69 -60 -84 -4 -15 -4 -64 -1 -109 7 -81 -4 -132 -17 -84 -5
20 -11 14 -47 -50 -71 -128 -85 -203 -55 -289 18 -52 23 -97 11 -102 -17 -8
-72 75 -90 136 -34 110 -55 151 -82 158 -14 3 -49 29 -79 57 l-54 51 0 66 c-1
95 -12 134 -51 170 -49 44 -91 54 -160 36 -76 -20 -116 -38 -166 -74 l-41 -30
-34 24 c-18 14 -52 34 -75 44 -24 11 -82 50 -130 87 -117 89 -171 114 -250
114 -53 0 -64 -3 -77 -22 -21 -30 -20 -64 4 -117 22 -48 26 -106 8 -117 -14
-9 -42 25 -87 105 -23 41 -41 61 -53 61 -28 0 -60 19 -85 49 -30 36 -53 20
-69 -48 -6 -28 -14 -54 -17 -57 -11 -12 -27 8 -28 34 -1 26 -1 26 -16 -8 -19
-44 -6 -108 42 -213 36 -79 77 -123 143 -156 50 -26 50 -42 -3 -104 -18 -21
-36 -55 -40 -75 -4 -20 -15 -52 -25 -71 -9 -20 -24 -56 -33 -81 -8 -25 -32
-85 -53 -135 -32 -75 -38 -101 -38 -161 0 -40 8 -97 18 -132 11 -34 17 -65 13
-68 -10 -10 -118 79 -207 172 -96 100 -149 195 -219 392 -51 144 -91 217 -155
285 -46 48 -60 56 -102 63 -27 4 -70 3 -96 -3 -27 -5 -48 -8 -48 -6 0 37 46
303 65 373 32 117 158 373 249 503 81 117 242 273 371 359 l99 66 29 -24 c41
-34 84 -31 193 16 126 54 147 53 210 -9 87 -85 150 -86 218 -6 43 52 88 79
117 70 11 -4 39 -24 64 -45 24 -21 59 -43 78 -49 102 -34 206 99 132 169 -14
13 -25 34 -25 47 0 28 19 30 126 8z m1000 -677 c8 -15 26 -60 40 -100 15 -40
30 -77 34 -83 22 -28 161 -463 184 -575 21 -100 20 -120 -8 -171 -14 -24 -34
-80 -46 -124 -105 -392 -173 -540 -329 -718 -22 -24 -110 -87 -123 -87 -3 0
-15 26 -27 59 -20 54 -25 60 -70 80 -28 11 -59 21 -71 21 -75 0 -172 -67 -210
-145 -12 -25 -23 -45 -25 -45 -11 0 -154 56 -175 69 -37 21 -149 132 -165 161
-44 84 -57 154 -65 345 -8 223 -18 266 -66 289 -39 18 -68 11 -99 -26 l-19
-23 -14 60 c-15 67 -44 105 -79 105 -51 0 -110 -47 -119 -96 -10 -53 36 -191
85 -255 35 -46 41 -61 41 -102 0 -56 -57 -179 -125 -267 -23 -30 -52 -75 -65
-100 -65 -128 -170 -205 -335 -246 -153 -38 -271 -38 -377 -2 -42 15 -88 39
-104 53 -15 14 -31 25 -36 25 -40 0 -321 278 -397 393 -77 114 -121 225 -121
304 0 17 -11 63 -25 101 -17 48 -25 90 -25 136 0 78 8 81 84 41 125 -67 141
-92 226 -360 39 -122 66 -176 117 -235 21 -25 47 -62 58 -84 22 -42 29 -48
155 -137 91 -64 206 -124 256 -134 52 -10 77 19 82 96 3 56 -1 75 -33 153 -48
115 -48 153 -3 248 19 41 41 99 48 129 7 29 17 70 21 89 5 19 29 60 54 90 51
62 78 131 73 187 -3 36 -8 41 -98 101 -80 52 -98 69 -117 110 -36 75 -28 139
19 155 26 9 63 -27 83 -80 23 -62 89 -151 122 -164 55 -21 109 38 120 131 5
41 1 61 -18 102 -23 49 -23 50 -4 64 35 26 61 15 181 -81 65 -51 142 -112 170
-134 63 -50 118 -74 153 -66 14 3 46 21 70 40 24 19 73 44 109 55 l66 21 25
-26 c23 -23 26 -35 29 -115 4 -89 4 -89 42 -122 21 -18 56 -44 78 -57 43 -26
64 -63 102 -182 32 -102 87 -172 169 -214 32 -16 35 -16 60 3 54 40 64 147 22
231 -32 63 -27 105 25 206 45 88 46 92 41 161 -6 85 9 118 69 154 62 37 95 71
120 125 27 58 30 115 9 175 -8 23 -15 46 -15 49 0 4 22 17 49 30 42 19 52 29
67 67 15 38 15 52 4 104 -15 69 -9 100 16 79 8 -7 22 -25 30 -41z m-206 -467
c-20 -41 -37 -57 -47 -47 -5 5 54 86 63 86 2 0 -5 -18 -16 -39z m-1500 -130
c0 -34 -16 -15 -24 29 -7 33 -6 34 9 16 8 -11 15 -31 15 -45z m2046 -385 c-3
-17 -22 -56 -40 -85 -27 -41 -36 -68 -41 -120 -30 -290 -116 -582 -243 -823
-45 -86 -60 -107 -74 -102 -13 4 -19 -2 -23 -20 -3 -14 -8 -38 -11 -53 -3 -16
-26 -63 -50 -106 -25 -43 -43 -85 -40 -92 3 -8 -15 -50 -39 -93 -87 -158 -107
-207 -140 -341 -19 -75 -39 -152 -44 -171 -12 -47 -151 -363 -208 -475 -25
-49 -83 -154 -129 -231 -46 -78 -84 -144 -84 -148 0 -34 99 72 155 169 14 23
11 -281 -3 -365 -7 -36 -12 -82 -12 -103 0 -87 -131 -379 -239 -532 -62 -89
-273 -300 -353 -352 -28 -19 -66 -46 -82 -59 -55 -45 -228 -174 -234 -174 -3
0 2 8 10 18 8 9 50 59 94 111 43 52 123 146 177 210 266 312 328 479 344 921
4 110 2 139 -11 155 -9 13 -18 16 -24 10 -5 -5 -26 -68 -46 -140 -55 -192
-115 -329 -222 -502 -54 -88 -221 -323 -244 -343 -3 -3 -23 -27 -45 -55 -106
-135 -437 -467 -450 -453 -3 3 6 43 21 89 23 73 42 106 152 259 254 352 293
419 440 765 155 364 248 630 262 750 4 38 15 97 24 130 9 33 21 100 27 150 5
49 18 110 27 135 27 71 23 411 -7 590 -36 220 -43 250 -56 250 -8 0 -19 35
-29 98 -22 123 -34 190 -51 272 -8 36 -19 108 -25 160 -35 280 -50 340 -113
466 -80 158 -83 205 -18 238 37 20 46 9 56 -61 4 -31 14 -58 26 -69 20 -18 32
-17 121 12 20 7 25 -33 36 -291 l8 -170 46 -105 c50 -114 104 -213 176 -325
101 -158 158 -243 194 -291 21 -28 38 -56 38 -62 0 -5 3 -12 8 -14 4 -1 36
-39 72 -82 87 -105 99 -118 110 -111 21 13 8 46 -40 110 -28 37 -60 85 -72
108 -19 38 -20 47 -9 98 14 71 14 151 -1 237 -14 83 -8 109 40 165 57 67 142
88 194 48 57 -45 75 -288 33 -428 -22 -72 -49 -80 -106 -28 -37 33 -43 35 -56
22 -14 -13 -13 -18 2 -44 10 -17 33 -38 51 -48 28 -15 34 -24 34 -51 0 -42 9
-64 26 -64 10 0 13 12 11 47 -2 42 0 47 23 53 29 7 63 61 86 140 12 41 15 85
12 171 l-3 116 63 33 c111 58 222 209 298 407 39 102 94 274 94 294 0 9 14 60
31 113 25 78 36 98 58 109 33 16 46 0 37 -47z m-3306 -120 c0 -99 132 -415
217 -520 133 -162 207 -240 267 -278 28 -18 53 -35 56 -39 7 -9 83 -49 94 -49
18 0 45 -32 39 -46 -7 -20 29 -57 77 -79 28 -13 58 -43 107 -109 107 -144 138
-189 182 -263 56 -98 173 -221 216 -229 29 -5 37 -13 58 -62 82 -183 116 -311
127 -472 7 -108 6 -137 -11 -215 -11 -49 -22 -91 -23 -93 -8 -8 -139 214 -256
433 -58 108 -165 281 -204 330 -18 22 -61 83 -97 135 -35 52 -91 124 -124 160
-97 104 -175 196 -175 207 0 5 -30 34 -67 64 -105 83 -211 188 -253 249 -51
74 -121 218 -155 315 -15 44 -33 94 -41 110 -26 60 -56 179 -65 263 -22 197
-22 204 -9 212 20 12 40 0 40 -24z m1684 -398 c11 -118 37 -328 50 -398 55
-306 57 -324 59 -602 1 -150 0 -328 -3 -395 l-5 -122 34 -35 34 -35 -17 -123
c-27 -196 -33 -216 -70 -232 -23 -10 -41 -29 -60 -67 -16 -30 -52 -99 -82
-155 -30 -55 -72 -150 -95 -210 -152 -406 -255 -641 -402 -913 -53 -99 -66
-105 -48 -21 6 28 11 64 11 80 0 19 5 30 14 30 15 0 103 149 188 319 81 161
193 559 243 864 10 59 21 107 25 107 13 0 21 40 30 145 24 253 36 354 44 362
10 9 3 -144 -14 -302 -28 -278 -31 -317 -19 -332 27 -32 36 17 64 352 18 221
18 406 0 550 -55 434 -55 438 -99 615 l-36 145 16 75 c9 41 22 91 29 110 8 19
16 49 20 65 8 40 67 175 76 175 4 0 10 -24 13 -52z m-464 -695 c55 -53 100
-101 100 -106 0 -5 15 -26 33 -48 50 -58 86 -138 108 -235 33 -153 24 -224
-31 -224 -33 0 -59 35 -89 121 -10 30 -37 95 -60 145 -22 51 -41 99 -41 107 0
8 -19 30 -41 48 -30 24 -53 57 -85 123 -24 49 -44 101 -44 116 0 28 16 50 37
50 6 0 57 -44 113 -97z m-237 -31 c41 -42 81 -119 57 -110 -11 4 -120 141
-120 151 0 16 18 5 63 -41z m1872 -129 c-8 -45 -22 -63 -30 -41 -6 16 19 78
31 78 4 0 3 -17 -1 -37z m-2189 -129 l35 -43 3 -118 c5 -172 38 -261 157 -415
95 -123 188 -210 258 -240 25 -11 53 -26 63 -34 11 -10 18 -12 23 -5 3 6 10
11 14 11 4 0 45 -66 91 -147 l83 -146 -47 -191 c-69 -276 -121 -430 -190 -561
l-31 -59 -3 69 c-4 121 -36 405 -61 550 -6 33 -11 80 -10 105 l1 45 19 -45
c11 -25 26 -56 34 -70 8 -14 26 -49 39 -78 28 -58 46 -61 46 -6 0 19 6 43 12
54 10 16 10 24 -1 43 -8 12 -27 51 -42 86 -15 35 -51 97 -80 137 -46 63 -58
74 -84 74 -26 0 -37 10 -85 83 -294 441 -361 605 -377 926 l-5 104 51 -43 c28
-24 67 -63 87 -86z m990 -1407 c-42 -115 -116 -288 -129 -302 -7 -6 -7 -3 -2
10 4 11 28 74 52 140 56 155 106 271 110 258 2 -6 -12 -53 -31 -106z m304
-124 c0 -25 -19 -201 -32 -298 -24 -179 -111 -347 -288 -555 -44 -52 -136
-161 -203 -242 -67 -80 -123 -140 -125 -132 -5 21 -56 17 -88 -8 -16 -12 -50
-40 -75 -62 -105 -93 -140 -116 -180 -116 -75 0 -67 11 101 150 126 103 269
251 369 380 45 58 114 148 154 200 142 183 296 474 335 630 16 66 32 92 32 53z
m-459 -250 c-12 -20 -14 -14 -5 12 4 9 9 14 11 11 3 -2 0 -13 -6 -23z m769
-403 c20 -190 109 -548 199 -804 12 -33 18 -63 14 -67 -10 -10 -195 -78 -240
-89 -18 -4 -33 -5 -33 -2 0 4 35 41 77 84 76 77 77 77 81 138 8 114 -36 198
-97 184 -41 -10 -48 -20 -77 -107 -41 -125 -88 -209 -156 -282 -33 -36 -69
-70 -78 -75 -21 -11 -200 -34 -207 -26 -3 3 19 33 49 68 86 100 121 154 197
303 75 147 95 210 69 220 -12 5 -8 13 17 38 22 22 35 47 40 75 12 73 -26 92
-98 49 -314 -186 -455 -275 -577 -361 -58 -40 -141 -95 -185 -121 -44 -27 -91
-55 -105 -64 -64 -39 97 112 185 174 55 39 123 89 151 110 28 22 97 75 153
118 315 241 411 348 539 600 l67 132 2 -95 c1 -52 7 -142 13 -200z m-1201
-325 c-21 -36 -39 -53 -39 -38 0 16 44 72 57 73 1 0 -7 -16 -18 -35z m868
-207 c-9 -13 -34 -52 -56 -88 -56 -92 -191 -278 -238 -326 -23 -24 -53 -44
-72 -47 -17 -4 -43 -18 -58 -33 -21 -21 -33 -25 -67 -22 -65 7 -285 49 -351
68 l-60 17 45 23 c50 26 152 69 255 107 39 15 108 49 155 76 47 27 114 65 150
85 36 19 101 56 145 82 148 88 182 101 152 58z m-807 -267 c0 -10 -91 -91
-102 -91 -18 0 11 41 47 69 43 32 55 37 55 22z m1388 -126 c18 -40 15 -44 -28
-33 -42 11 -52 30 -22 47 27 16 38 13 50 -14z m-1614 -26 c23 -13 36 -29 36
-41 0 -11 -21 -69 -46 -129 l-45 -108 -45 21 c-24 12 -44 27 -44 34 0 6 8 31
19 55 10 24 31 77 46 117 15 39 31 72 35 72 5 0 25 -9 44 -21z m123 -5 c-3 -3
-12 -4 -19 -1 -8 3 -5 6 6 6 11 1 17 -2 13 -5z m-224 -303 c38 -17 57 -30 57
-42 0 -22 -177 -379 -187 -379 -5 0 -41 12 -80 28 l-72 27 57 96 c31 53 80
142 107 197 28 56 52 100 55 99 3 -1 31 -13 63 -26z m1946 -178 c40 -81 88
-170 106 -199 l33 -52 -84 -27 c-46 -15 -90 -25 -97 -22 -8 3 -28 49 -45 102
-18 53 -50 135 -72 182 -22 47 -40 93 -40 102 0 14 82 57 115 60 6 1 43 -65
84 -146z m-1229 107 c12 -48 3 -58 -48 -52 -59 6 -69 14 -54 46 19 42 93 46
102 6z m-445 -35 c39 -13 81 -25 94 -25 27 0 28 4 -19 -140 -17 -52 -36 -112
-42 -132 -14 -47 -24 -48 -32 -3 -8 42 -35 47 -59 13 -16 -23 -16 -23 -16 10
-1 59 -25 30 -35 -42 -8 -58 -7 -69 8 -84 16 -16 19 -15 41 11 l24 28 7 -28
c3 -16 8 -36 11 -47 4 -16 1 -17 -29 -11 -39 9 -218 71 -226 80 -3 3 4 22 17
43 12 20 55 104 96 185 74 147 84 167 88 167 1 0 34 -11 72 -25z m1273 -67
c50 -162 50 -161 -18 -172 -68 -11 -77 -28 -72 -129 3 -66 8 -90 19 -94 18 -7
33 13 33 45 0 20 5 22 46 22 25 0 54 4 64 10 15 8 20 5 29 -22 6 -17 8 -35 4
-38 -12 -10 -142 -48 -192 -55 -61 -10 -94 -14 -191 -21 l-84 -7 17 26 c33 51
9 76 -41 41 -43 -30 -56 8 -22 64 18 30 50 44 50 22 0 -5 5 -10 11 -10 6 0 9
12 7 28 -2 21 -9 28 -31 30 -72 8 -129 -130 -77 -185 l19 -21 -97 -7 c-120 -9
-334 0 -467 21 -55 8 -115 17 -133 20 -39 6 -38 28 2 32 17 2 34 14 45 33 19
32 31 29 31 -8 0 -26 25 -32 34 -8 3 9 18 15 37 15 26 0 30 -3 26 -20 -7 -26
16 -55 37 -47 22 9 21 68 -3 98 -12 16 -17 34 -14 52 4 21 0 29 -20 38 -37 17
-78 -6 -91 -51 l-10 -35 -6 45 c-6 52 -16 70 -36 70 -17 0 -17 4 1 105 8 44
15 93 15 108 0 26 3 28 28 23 31 -6 190 -25 242 -29 l35 -3 -45 -14 c-51 -16
-58 -24 -82 -100 -19 -59 -17 -85 8 -94 11 -4 20 5 31 33 13 33 22 41 52 48
21 5 36 15 36 23 0 16 -27 18 -57 5 -12 -5 -18 -3 -18 6 0 27 18 41 59 46 38
5 42 8 38 29 l-4 24 158 0 c88 0 159 -4 159 -8 0 -4 -15 -37 -34 -72 -43 -83
-52 -110 -34 -110 7 0 19 9 26 20 8 13 23 20 42 20 26 0 30 -4 30 -28 0 -29
16 -52 36 -52 20 0 37 55 25 78 -6 12 -11 42 -11 67 0 25 -5 55 -10 66 -8 14
-7 19 2 19 57 2 321 29 325 34 15 15 32 3 41 -26z m-408 -98 c0 -11 -7 -20
-15 -20 -13 0 -14 4 -5 20 6 11 13 20 15 20 3 0 5 -9 5 -20z m444 -134 c-5
-13 -46 -36 -64 -36 -20 0 -9 31 13 40 34 13 57 12 51 -4z m-1816 -28 c34 -13
62 -28 62 -35 0 -15 -117 -210 -131 -219 -10 -6 -119 70 -119 83 0 11 112 193
119 193 3 0 34 -10 69 -22z m682 -39 c0 -18 -26 -56 -34 -49 -3 3 0 25 6 49 7
29 13 38 19 29 5 -7 9 -20 9 -29z m129 18 c-2 -1 -12 -9 -21 -16 -15 -12 -18
-11 -18 3 0 10 8 16 22 16 12 0 19 -1 17 -3z m1501 -59 c0 -18 -173 -78 -191
-67 -21 12 -1 27 72 54 71 27 119 32 119 13z m-236 -317 c14 -22 -39 -52 -166
-91 -68 -21 -6 37 69 65 26 10 52 22 58 26 12 11 32 11 39 0z"/>
<path d="M2546 7734 c-43 -42 -28 -83 47 -130 20 -14 37 -31 37 -38 0 -8 12
-28 26 -45 21 -25 34 -31 64 -31 51 0 80 35 80 96 0 58 -30 91 -93 103 -30 5
-59 19 -76 35 -31 29 -62 33 -85 10z m64 -49 c18 -17 45 -29 78 -34 28 -4 58
-14 67 -21 23 -19 18 -58 -10 -86 -32 -32 -57 -20 -84 41 -14 32 -29 48 -54
59 -40 16 -49 28 -41 50 8 21 13 20 44 -9z"/>
<path d="M2168 7694 c-31 -13 -41 -25 -58 -72 -12 -32 -28 -65 -37 -74 -8 -9
-18 -38 -21 -63 -4 -35 -1 -50 14 -66 17 -19 26 -20 86 -14 l67 6 20 -39 c30
-58 68 -85 111 -78 19 3 46 14 59 24 51 37 65 149 24 194 -10 12 -42 36 -70
55 -36 23 -58 45 -68 70 -31 74 -57 86 -127 57z m92 -69 c13 -31 34 -55 67
-77 99 -68 115 -107 73 -175 -16 -27 -26 -33 -53 -33 -37 0 -51 13 -81 73 -23
44 -49 54 -111 38 -24 -6 -49 -11 -54 -11 -19 0 -12 47 14 96 14 26 25 58 25
71 0 16 11 30 33 43 49 30 65 26 87 -25z"/>
<path d="M4401 7004 c-6 -14 -14 -54 -17 -88 -3 -33 -15 -82 -26 -108 -17 -39
-19 -50 -8 -63 17 -20 36 -19 71 6 52 37 79 96 79 177 0 79 -13 102 -59 102
-20 0 -31 -7 -40 -26z m69 -82 c0 -49 -29 -110 -62 -131 -19 -12 -20 -11 -13
6 4 10 11 55 15 100 10 99 15 110 41 87 13 -12 19 -31 19 -62z"/>
<path d="M4433 6708 c-11 -13 -31 -43 -43 -68 -24 -48 -30 -53 -102 -101 -51
-34 -61 -56 -47 -98 19 -55 99 -77 157 -44 33 19 72 71 72 97 0 28 19 59 59
93 32 28 35 34 24 52 -7 11 -10 26 -8 33 8 21 -33 58 -64 58 -16 0 -36 -9 -48
-22z m82 -19 c11 -17 -3 -54 -31 -84 -29 -32 -54 -84 -54 -114 0 -45 -114 -83
-148 -49 -21 21 -13 33 49 77 46 32 65 54 80 89 33 76 83 115 104 81z"/>
<path d="M4150 5653 c-15 -11 -44 -18 -73 -18 -41 0 -53 -5 -73 -28 -33 -39
-22 -50 24 -24 21 11 46 18 55 14 9 -3 25 -35 38 -77 22 -73 34 -89 51 -72 7
7 5 31 -7 76 -15 53 -15 68 -5 81 7 8 18 15 26 15 17 0 25 15 18 34 -8 21 -24
20 -54 -1z"/>
<path d="M3333 1421 c-28 -11 -54 -17 -57 -14 -11 11 -22 -37 -21 -97 0 -51 3
-65 15 -65 9 0 16 11 18 27 3 24 9 29 43 34 43 7 54 17 45 39 -4 12 -10 12
-42 -1 -30 -13 -38 -13 -45 -2 -5 7 -9 16 -9 21 0 10 45 27 95 36 25 4 40 12
40 21 0 22 -24 22 -82 1z"/>
<path d="M3180 1339 c-23 -76 -23 -104 0 -104 14 0 20 20 33 128 10 70 -9 57
-33 -24z"/>
<path d="M3720 1210 c-6 -11 -9 -29 -5 -39 6 -21 -32 -74 -47 -65 -6 4 -8 26
-4 55 8 59 -4 63 -39 12 -31 -47 -32 -89 -2 -127 21 -25 28 -28 60 -22 63 12
122 114 100 176 -11 33 -48 38 -63 10z"/>
<path d="M3050 1133 c-44 -98 -26 -136 51 -112 33 10 45 20 47 37 4 25 -13 29
-53 10 -34 -15 -38 -8 -20 42 29 82 9 99 -25 23z"/>
<path d="M3189 1173 c-1 -5 -3 -19 -4 -33 -2 -14 -8 -44 -13 -68 -10 -44 -10
-45 36 -69 43 -23 108 27 119 90 8 52 -29 87 -92 87 -25 0 -46 -3 -46 -7z m85
-29 c22 -9 20 -50 -4 -74 -39 -39 -77 -14 -66 45 6 28 11 35 31 35 13 0 30 -3
39 -6z"/>
</g>
</svg>