




<svg version="1.0" xmlns="http://www.w3.org/2000/svg"
 width="510.000000pt" height="510.000000pt" viewBox="0 0 510.000000 510.000000"
 preserveAspectRatio="xMidYMid meet">

<g transform="translate(0.000000,510.000000) scale(0.100000,-0.100000)"
fill="#000000" stroke="none">
<path d="M1435 4638 c-11 -34 -25 -100 -35 -163 -5 -38 -13 -85 -16 -104 -5
-31 -4 -33 10 -22 9 8 16 24 16 37 0 25 37 225 46 249 4 8 1 15 -5 15 -7 0
-14 -6 -16 -12z"/>
<path d="M1265 4536 c-258 -173 -484 -402 -657 -666 -495 -755 -494 -1764 4
-2514 21 -32 35 -62 31 -66 -4 -4 -53 -19 -108 -35 -107 -30 -470 -151 -495
-166 -21 -12 -24 -12 240 16 408 42 542 54 663 61 116 7 135 14 135 47 0 37
16 216 21 230 6 14 15 8 56 -40 27 -32 74 -85 105 -117 30 -32 50 -61 44 -63
-6 -2 -20 -11 -30 -19 -20 -16 6 -16 353 2 l122 7 -107 70 c-203 134 -425 384
-536 606 -51 101 -106 255 -132 370 -111 493 10 996 336 1396 l57 70 -14 95
c-8 52 -18 113 -22 135 l-8 40 -101 -105 c-56 -57 -102 -99 -102 -92 0 7 -7
76 -16 154 -8 77 -13 142 -11 144 2 3 56 -2 119 -9 l115 -13 6 171 c4 96 15
212 25 268 10 53 18 97 18 97 -1 0 -50 -34 -111 -74z m-342 -833 c19 -82 34
-149 32 -151 -5 -5 -280 -82 -293 -82 -8 0 7 39 39 101 59 114 164 279 178
279 5 0 25 -66 44 -147z m-132 -536 c-21 -68 -42 -145 -46 -169 -7 -44 -20
-77 -28 -68 -33 44 -158 222 -162 232 -4 9 36 31 132 74 76 33 139 59 141 58
2 -1 -15 -58 -37 -127z m-120 -561 c-15 -17 -63 -69 -107 -115 l-79 -84 -7 44
c-9 58 -10 246 -1 332 l6 69 108 -108 108 -108 -28 -30z m70 -368 c11 -51 31
-128 45 -172 14 -43 23 -81 20 -84 -4 -4 -248 101 -264 113 -2 2 36 57 85 123
48 66 90 118 92 116 2 -1 12 -45 22 -96z m45 -488 c76 -22 140 -42 142 -45 7
-7 -60 -295 -69 -295 -15 0 -148 223 -193 324 -14 31 -23 56 -21 56 3 0 66
-18 141 -40z"/>
<path d="M1376 4243 c-3 -21 -6 -68 -6 -105 0 -54 3 -68 15 -68 12 0 15 18 15
105 0 105 -12 139 -24 68z"/>
<path d="M1388 4044 c-5 -4 -8 -30 -7 -58 1 -99 27 -227 40 -203 2 2 -18 204
-24 255 -1 8 -5 10 -9 6z"/>
<path d="M2100 3895 c-223 -32 -255 -45 -443 -186 -115 -87 -228 -209 -277
-301 -62 -115 -48 -243 42 -396 38 -65 173 -206 236 -247 l43 -29 97 25 c132
33 357 34 442 3 36 -13 59 -29 67 -45 14 -27 16 -123 4 -154 -6 -15 0 -29 25
-57 18 -21 47 -63 63 -95 32 -64 81 -212 81 -245 0 -11 -13 -48 -30 -82 -46
-95 -48 -135 -10 -247 18 -52 65 -170 105 -264 40 -93 71 -172 70 -174 -2 -1
-29 9 -61 23 -79 36 -91 35 -64 -9 l22 -35 -36 0 c-20 0 -36 -4 -36 -8 0 -5
-12 -15 -27 -22 l-28 -12 35 -13 c19 -7 80 -20 135 -30 55 -9 126 -28 157 -42
54 -22 74 -24 282 -30 l224 -6 83 48 c46 26 115 71 154 99 l69 51 -87 3 c-77
2 -98 -1 -191 -33 l-104 -35 -198 6 c-209 8 -226 17 -54 29 l105 7 75 89 c125
148 212 311 197 370 -4 15 1 22 21 30 48 17 86 41 128 81 39 37 41 43 33 72
-20 68 -30 231 -20 335 l10 104 130 131 c195 195 281 322 281 415 0 35 -3 42
-15 37 -49 -18 -140 -40 -210 -51 l-80 -11 -45 49 c-149 164 -272 399 -336
645 -3 9 -12 10 -31 5 -63 -17 -166 -8 -230 20 -38 17 -84 28 -120 29 -57 3
-58 2 -73 -29 -18 -40 -28 -39 -177 19 -80 31 -103 44 -103 58 0 11 -5 42 -11
70 l-11 50 -106 -1 c-59 -1 -150 -7 -202 -14z m209 -97 c4 -13 11 -45 15 -71
7 -45 10 -50 51 -67 48 -20 200 -70 216 -70 5 0 9 6 9 14 0 8 10 26 23 39 l22
25 105 -19 c58 -10 153 -21 212 -25 l107 -7 7 -41 c12 -73 65 -218 119 -326
59 -117 107 -190 186 -286 62 -75 60 -74 212 -43 56 11 110 22 120 24 9 2 22
7 27 10 6 3 10 2 10 -2 0 -15 -154 -112 -252 -158 -141 -67 -263 -96 -429
-102 -210 -9 -382 24 -553 107 -93 45 -212 123 -209 137 1 6 -10 21 -25 34
l-27 24 24 -27 c14 -16 20 -28 14 -28 -12 0 -55 45 -48 51 2 3 -18 27 -47 55
-28 27 -47 42 -43 34 20 -37 -50 40 -94 104 -65 94 -123 212 -155 316 -29 91
-59 261 -48 271 14 13 264 44 380 47 56 2 63 0 71 -20z m-74 -807 c-7 -6 -75
60 -75 73 0 6 18 -7 40 -29 22 -21 37 -41 35 -44z"/>
<path d="M1872 3720 c0 -19 2 -27 5 -17 2 9 2 25 0 35 -3 9 -5 1 -5 -18z"/>
<path d="M1882 3650 c0 -14 2 -19 5 -12 2 6 2 18 0 25 -3 6 -5 1 -5 -13z"/>
<path d="M1891 3594 c0 -11 3 -14 6 -6 3 7 2 16 -1 19 -3 4 -6 -2 -5 -13z"/>
<path d="M1901 3554 c0 -11 3 -14 6 -6 3 7 2 16 -1 19 -3 4 -6 -2 -5 -13z"/>
<path d="M1940 3435 c0 -5 5 -17 10 -25 5 -8 10 -10 10 -5 0 6 -5 17 -10 25
-5 8 -10 11 -10 5z"/>
<path d="M2020 3270 c6 -11 13 -20 16 -20 2 0 0 9 -6 20 -6 11 -13 20 -16 20
-2 0 0 -9 6 -20z"/>
<path d="M2050 3221 c5 -11 15 -23 21 -27 6 -3 3 5 -6 20 -20 30 -30 35 -15 7z"/>
<path d="M2080 3176 c0 -2 8 -10 18 -17 15 -13 16 -12 3 4 -13 16 -21 21 -21
13z"/>
<path d="M2125 3120 c10 -11 20 -20 23 -20 3 0 -3 9 -13 20 -10 11 -20 20 -23
20 -3 0 3 -9 13 -20z"/>
<path d="M2342 2918 c30 -26 88 -62 88 -55 0 2 -26 21 -57 41 -32 20 -46 27
-31 14z"/>
<path d="M3650 2899 c-22 -18 -22 -19 -3 -10 12 6 25 16 28 21 9 15 3 12 -25
-11z"/>
<path d="M3594 2864 c-18 -14 -18 -15 4 -4 12 6 22 13 22 15 0 8 -5 6 -26 -11z"/>
<path d="M2460 2845 c0 -7 81 -47 86 -43 2 3 -17 14 -41 26 -25 12 -45 20 -45
17z"/>
<path d="M3520 2825 c-14 -8 -20 -14 -14 -15 5 0 19 7 30 15 24 18 16 19 -16
0z"/>
<path d="M3390 2770 c-8 -5 -10 -10 -5 -10 6 0 17 5 25 10 8 5 11 10 5 10 -5
0 -17 -5 -25 -10z"/>
<path d="M3348 2753 c7 -3 16 -2 19 1 4 3 -2 6 -13 5 -11 0 -14 -3 -6 -6z"/>
<path d="M2698 2743 c7 -3 16 -2 19 1 4 3 -2 6 -13 5 -11 0 -14 -3 -6 -6z"/>
<path d="M2738 2733 c7 -3 16 -2 19 1 4 3 -2 6 -13 5 -11 0 -14 -3 -6 -6z"/>
<path d="M3278 2733 c7 -3 16 -2 19 1 4 3 -2 6 -13 5 -11 0 -14 -3 -6 -6z"/>
<path d="M2788 2723 c7 -3 16 -2 19 1 4 3 -2 6 -13 5 -11 0 -14 -3 -6 -6z"/>
<path d="M3228 2723 c7 -3 16 -2 19 1 4 3 -2 6 -13 5 -11 0 -14 -3 -6 -6z"/>
<path d="M2843 2713 c9 -2 23 -2 30 0 6 3 -1 5 -18 5 -16 0 -22 -2 -12 -5z"/>
<path d="M3163 2713 c9 -2 23 -2 30 0 6 3 -1 5 -18 5 -16 0 -22 -2 -12 -5z"/>
<path d="M2958 2703 c28 -2 76 -2 105 0 28 2 5 3 -53 3 -58 0 -81 -1 -52 -3z"/>
<path d="M4750 2608 c-129 -110 -125 -106 -117 -114 3 -4 37 18 74 49 118 97
156 133 152 144 -2 6 -51 -29 -109 -79z"/>
<path d="M4810 2568 c-76 -69 -200 -160 -296 -218 l-91 -56 69 -93 c38 -52 67
-99 65 -104 -4 -12 -266 -131 -273 -124 -2 2 3 24 11 48 21 59 66 231 62 236
-2 2 -37 -12 -78 -30 -41 -19 -97 -42 -124 -52 l-51 -17 -28 -82 c-42 -120
-147 -319 -223 -421 -115 -155 -287 -312 -447 -408 l-57 -35 196 -7 197 -8 90
89 c49 49 105 110 125 136 20 26 39 45 42 42 3 -3 11 -65 17 -139 7 -73 14
-138 18 -143 3 -5 58 -12 123 -16 65 -4 134 -9 153 -12 19 -2 114 -11 210 -19
96 -9 255 -25 354 -36 201 -21 207 -22 186 -10 -25 15 -388 136 -495 166 -55
16 -103 31 -107 34 -3 3 21 49 54 101 177 280 303 650 338 995 6 61 10 135 8
166 l-3 57 -45 -40z m-350 -784 c0 -3 -25 -54 -55 -112 -62 -122 -150 -262
-163 -262 -10 0 -86 289 -79 297 7 6 260 81 280 82 9 1 17 -2 17 -5z"/>
<path d="M4515 2432 c-22 -14 -62 -38 -89 -53 -52 -29 -48 -51 5 -24 59 31
139 86 139 95 0 15 -11 11 -55 -18z"/>
<path d="M4238 2286 c-144 -62 -162 -93 -20 -34 122 50 152 66 152 78 0 14 -3
13 -132 -44z"/>
<path d="M3710 2090 c-8 -18 -31 -40 -64 -59 -96 -55 -118 -80 -123 -141 -4
-35 -12 -63 -25 -77 -16 -17 -20 -36 -21 -95 -1 -70 0 -73 27 -87 20 -9 38
-11 59 -4 25 7 33 17 47 58 10 28 45 103 79 167 55 106 61 124 61 177 0 92
-17 117 -40 61z"/>
<path d="M4501 966 c-33 -18 -50 -53 -51 -102 0 -96 113 -145 184 -79 96 89
-18 244 -133 181z m114 -31 c50 -49 25 -147 -39 -157 -36 -6 -76 13 -92 44
-46 90 62 183 131 113z"/>
<path d="M4520 864 c0 -41 4 -63 10 -59 6 3 10 18 10 33 l1 27 27 -33 c33 -40
48 -42 28 -3 -14 26 -14 30 -1 35 18 7 20 37 3 54 -7 7 -27 12 -45 12 l-33 0
0 -66z m66 35 c7 -12 -12 -29 -33 -29 -7 0 -13 9 -13 20 0 22 34 28 46 9z"/>
<path d="M2424 944 c-23 -8 -54 -27 -69 -42 -24 -24 -395 -695 -395 -714 0 -5
67 -8 149 -8 l149 0 47 85 46 85 197 -2 197 -3 39 -82 39 -83 155 0 c136 0
153 2 148 16 -8 21 -320 596 -358 661 -46 76 -89 97 -208 100 -66 2 -108 -2
-136 -13z m235 -426 c1 -5 -51 -8 -114 -8 -63 0 -115 2 -115 5 0 3 25 58 56
122 l56 118 58 -115 c33 -63 59 -118 59 -122z"/>
<path d="M1037 939 c-83 -9 -153 -42 -178 -83 -17 -28 -19 -53 -19 -289 0
-298 1 -301 85 -342 80 -39 139 -45 471 -45 l314 0 0 85 0 85 -268 0 c-248 0
-270 1 -285 18 -15 16 -17 45 -17 199 0 162 2 182 18 196 16 15 51 17 280 17
l262 0 0 85 0 85 -297 -1 c-164 -1 -328 -5 -366 -10z"/>
<path d="M3584 940 c-72 -8 -129 -35 -158 -74 -20 -26 -21 -42 -24 -357 l-3
-329 151 0 150 0 0 155 0 155 280 0 280 0 0 85 0 85 -280 0 -280 0 0 43 c0 32
6 49 21 63 19 17 42 19 280 22 l259 3 0 80 0 79 -307 -1 c-170 -1 -336 -5
-369 -9z"/>
</g>
</svg>
